# xmcd
#
# Track frame offsets:
# 150
# 14573
# 32220
# 54880
# 68093
# 83895
# 109680
# 136350
# 157850
# 179438
# 195853
# 215975
#
# Disc length: 3092 seconds
#
# Revision: 1
# Processed by: cddbd v1.5.2PL0 Copyright (c) Steve Scherf et al.
# Submitted via: Easy CD Ripper v2.16
#
DISCID=9f0c120c
DTITLE=Simply Red - Red Stars at Night
DYEAR=1992
DGENRE=Blues
TTITLE0=Grandma's Hands
TTITLE1=More
TTITLE2=Groovy Situation
TTITLE3=Lady Godiva's Room
TTITLE4=Holding back the Years
TTITLE5=Sad old Red
TTITLE6=Enough
TTITLE7=Turn it up
TTITLE8=Something got me started
TTITLE9=If you don't know me by now
TTITLE10=It's only love
TTITLE11=Everytime we say Goodbye
EXTD=
EXTT0=
EXTT1=
EXTT2=
EXTT3=
EXTT4=
EXTT5=
EXTT6=
EXTT7=
EXTT8=
EXTT9=
EXTT10=
EXTT11=
PLAYORDER=
